P2
81 81
31
30
30
30
30
30
30
30
30
30
30
30
30
30
30
30
30
30
30
30
30
30
30
30
30
30
30
30
30
30
30
30
30
30
30
30
30
30
30
30
30
30
30
30
30
30
30
30
30
30
30
30
30
30
30
30
30
30
30
30
30
30
30
30
30
30
30
30
30
30
30
30
30
30
30
30
30
30
30
30
30
30
30
30
30
30
30
30
30
30
30
30
30
30
30
30
30
30
30
30
30
30
30
30
30
30
30
30
30
30
30
30
30
30
30
30
30
30
30
30
30
30
30
30
30
30
30
30
30
30
30
30
30
30
30
30
30
30
30
30
30
30
30
30
30
30
30
30
30
30
30
30
30
30
30
30
30
30
30
30
30
30
30
30
30
30
30
30
30
30
30
30
30
30
30
30
30
30
30
30
30
30
30
30
30
30
30
30
30
30
30
30
30
30
30
30
30
30
30
30
30
30
30
30
30
30
30
30
30
30
30
30
30
30
30
30
30
30
30
30
30
30
30
30
30
30
30
30
30
30
30
30
30
30
30
30
30
30
30
30
30
30
30
30
30
30
30
30
30
30
30
30
30
30
30
30
30
30
30
30
30
30
30
30
30
30
30
30
30
30
30
30
30
30
30
30
30
30
30
30
30
30
30
30
30
30
30
30
30
30
30
30
30
30
30
30
30
30
30
30
30
30
30
30
30
30
30
30
30
30
30
30
30
30
30
30
30
30
30
30
30
30
30
30
30
30
30
30
30
30
30
30
30
30
30
30
30
30
30
30
30
30
30
30
30
30
30
30
30
30
30
30
30
30
30
30
30
30
30
30
30
30
30
30
30
30
30
30
30
30
30
30
30
30
30
30
30
30
30
30
30
30
30
30
30
30
30
30
30
30
30
30
30
30
30
30
30
30
30
30
30
30
30
30
30
30
30
30
30
30
30
30
30
30
30
30
30
30
30
30
30
30
30
30
30
30
30
30
30
30
30
30
30
30
30
30
30
30
30
30
30
30
30
30
30
30
30
30
30
30
30
30
30
30
30
30
30
30
30
30
30
30
30
30
30
30
30
30
30
30
30
30
30
30
30
30
30
30
30
30
30
30
30
30
30
30
30
30
30
30
30
30
30
30
30
30
30
30
30
30
30
30
30
30
30
30
30
30
30
30
30
30
30
30
30
30
30
30
30
30
30
30
30
30
30
30
30
30
30
30
30
30
30
30
30
30
30
30
30
30
30
30
30
30
30
30
30
30
30
30
30
30
0
0
0
0
0
0
30
30
30
30
30
30
30
30
30
30
30
30
30
30
30
30
30
30
30
30
30
30
30
30
30
30
30
30
30
30
30
30
30
30
30
30
30
30
30
30
30
30
30
30
30
30
30
30
30
30
30
30
30
30
30
0
0
0
30
30
30
30
30
30
30
30
30
30
30
30
30
30
30
0
0
0
0
0
0
0
0
0
30
30
30
30
30
30
30
30
30
30
30
30
30
30
30
30
30
30
30
30
30
30
30
30
30
30
30
30
30
30
30
30
30
30
30
30
30
30
30
30
30
30
30
30
30
30
30
30
30
30
30
30
30
30
0
0
0
0
0
0
0
30
30
30
30
30
30
30
30
30
30
0
0
0
0
0
0
0
0
0
0
0
0
30
30
30
30
30
30
30
30
30
30
30
30
30
30
30
30
30
30
30
30
30
30
30
30
30
30
30
30
30
30
30
30
30
30
30
30
30
30
30
30
30
30
30
30
30
30
30
30
30
30
30
30
0
0
0
0
0
0
0
0
0
0
0
30
30
30
30
30
30
0
0
0
7
21
27
27
21
5
0
0
0
30
30
30
30
30
30
30
30
30
30
30
30
30
30
30
30
30
30
30
30
30
30
30
30
30
30
30
30
30
30
30
30
30
30
30
30
30
30
30
30
30
30
30
30
30
30
30
30
30
30
30
0
0
0
0
0
0
0
0
0
0
0
0
0
0
0
0
0
0
0
0
10
30
30
30
30
30
29
9
0
0
0
30
30
30
30
30
30
30
30
30
30
30
30
30
30
30
30
30
30
30
30
30
30
30
30
30
30
30
30
30
30
30
30
30
30
30
30
30
30
30
30
30
30
30
30
30
30
30
30
30
30
0
0
0
30
30
30
30
30
0
0
0
0
0
0
0
0
0
0
0
2
29
30
30
30
30
30
30
27
2
0
0
30
30
30
30
30
30
30
30
30
30
30
30
30
30
30
30
30
30
30
30
30
30
30
30
30
30
30
30
30
30
30
30
30
30
30
30
30
30
30
30
30
30
30
30
30
30
30
30
30
30
0
0
0
30
30
30
30
30
30
30
30
30
0
0
0
0
0
0
0
12
30
30
30
30
30
30
30
30
10
0
0
30
30
30
30
30
30
30
30
30
30
30
30
30
30
30
30
30
30
30
30
30
30
30
30
30
30
30
30
30
30
30
30
30
30
30
30
30
30
30
30
30
30
30
30
30
30
30
30
30
0
0
0
30
30
30
30
30
30
30
30
30
30
30
30
30
30
0
0
0
16
30
30
30
30
30
30
30
30
15
0
0
0
30
30
30
30
30
30
30
30
30
30
30
30
30
30
30
30
30
30
30
30
30
30
30
30
30
30
30
30
30
30
30
30
30
30
30
30
30
30
30
30
30
30
30
30
30
30
30
30
0
0
0
30
30
30
30
30
30
30
30
30
30
30
30
30
30
30
0
0
12
30
30
30
30
30
30
30
30
11
0
0
30
30
30
30
30
30
30
30
30
30
30
30
30
30
30
30
30
30
30
30
30
30
30
30
30
30
30
30
30
30
30
30
30
30
30
30
30
30
30
30
30
30
30
30
30
30
30
30
30
0
0
0
30
30
30
30
30
30
30
30
30
30
30
30
30
30
30
0
0
3
29
30
30
30
30
30
30
29
2
0
0
30
30
30
30
30
30
30
30
30
30
30
30
30
30
30
30
30
30
30
30
30
30
30
30
30
30
30
30
30
30
30
30
30
30
30
30
30
30
30
30
30
30
30
30
30
30
30
30
0
0
0
30
30
30
30
30
30
30
30
30
30
30
30
30
30
30
30
0
0
0
12
30
30
30
30
30
30
11
0
0
0
30
30
30
30
30
30
30
30
30
30
30
30
30
30
30
30
30
30
30
30
30
30
30
30
30
30
30
30
30
30
30
30
30
30
30
30
30
30
30
30
30
30
30
30
30
30
30
30
0
0
0
30
30
30
30
30
30
30
30
30
30
30
30
30
30
30
30
30
0
0
0
10
25
30
30
25
9
0
0
0
30
30
30
30
30
30
30
30
30
30
30
30
30
30
30
30
30
30
30
30
30
30
30
30
30
30
30
30
30
30
30
30
30
30
30
30
30
30
30
30
30
30
30
30
30
30
30
30
30
0
0
0
30
30
30
30
30
30
30
30
30
30
30
30
30
30
30
30
30
0
0
0
0
0
2
2
0
0
0
0
0
30
30
30
30
30
30
30
30
30
30
30
30
30
30
30
30
30
30
30
30
30
30
30
30
30
30
30
30
30
30
30
30
30
30
30
30
30
30
30
30
30
30
30
30
30
30
30
30
0
0
0
30
30
30
30
30
30
30
30
30
30
30
30
30
30
30
30
30
30
30
0
0
0
0
0
0
0
0
0
0
30
30
30
30
30
30
30
30
30
30
30
30
30
30
30
30
30
30
30
30
30
30
30
30
30
30
30
30
30
30
30
30
30
30
30
30
30
30
30
30
30
30
30
30
30
30
30
30
30
0
0
0
30
30
30
30
30
30
30
30
30
30
30
30
30
30
30
30
30
30
30
30
30
0
0
0
0
0
0
30
30
30
30
30
30
30
30
30
30
30
30
30
30
30
30
30
30
30
30
30
30
30
30
30
30
30
30
30
30
30
30
30
30
30
30
30
30
30
30
30
30
30
30
30
30
30
30
30
30
30
0
0
0
30
30
30
30
30
30
30
30
30
30
30
30
30
30
30
30
30
30
30
30
30
30
30
30
30
30
30
30
30
30
30
30
30
30
30
30
30
30
30
30
30
30
30
30
30
30
30
30
30
30
30
30
30
30
30
30
30
30
30
30
30
30
30
30
30
30
30
30
30
30
30
30
30
30
30
30
30
0
0
0
0
30
30
30
30
30
30
30
30
30
30
30
30
30
30
30
30
30
30
30
30
30
30
30
30
30
30
30
30
30
30
30
30
30
30
30
30
30
30
30
30
30
30
30
30
30
30
30
30
30
30
30
30
30
30
30
30
30
30
30
30
30
30
30
30
30
30
30
30
30
30
30
30
30
30
30
30
30
0
0
0
30
30
30
30
30
30
30
30
30
30
30
30
30
30
30
30
30
30
30
30
30
30
30
30
30
30
30
30
30
30
30
30
30
30
30
30
30
30
30
30
30
30
30
30
30
30
30
30
30
30
30
30
30
30
30
30
30
30
30
30
30
30
30
30
30
30
30
30
30
30
30
30
30
30
30
30
30
30
0
0
0
30
30
30
30
30
30
30
30
30
30
30
30
30
30
30
30
30
30
30
30
30
30
30
30
30
30
30
30
30
30
30
30
30
30
30
30
30
30
30
30
30
30
30
30
30
30
30
30
30
30
30
30
30
30
30
30
30
30
30
30
30
30
30
30
30
30
30
30
30
30
30
30
30
30
30
30
30
0
0
0
0
30
30
30
30
30
30
30
30
30
30
30
30
30
30
30
30
30
30
30
30
30
30
30
30
30
30
30
30
30
30
30
30
30
30
30
30
30
30
30
30
30
30
30
30
30
30
30
30
30
30
30
30
30
30
30
30
30
30
30
30
30
30
30
30
30
30
30
30
30
0
0
0
0
0
0
0
0
0
0
0
0
0
0
0
0
0
0
0
30
30
30
30
30
30
30
30
30
30
30
30
30
30
30
30
30
30
30
30
30
30
30
30
30
30
30
30
30
30
30
30
30
30
30
30
30
30
30
30
30
30
30
30
30
30
30
30
30
30
30
30
30
30
30
30
30
0
0
0
0
0
0
0
0
0
0
0
0
0
0
0
0
0
0
0
0
0
0
0
0
0
0
0
0
30
30
30
30
30
30
30
30
30
30
30
30
30
30
30
30
30
30
30
30
30
30
30
30
30
30
30
30
30
30
30
30
30
30
30
30
30
30
30
30
30
30
30
30
30
30
30
30
30
30
0
0
0
0
0
0
0
0
0
0
0
0
3
7
8
9
10
10
10
8
8
5
2
0
0
0
0
0
0
0
0
0
0
0
30
30
30
30
30
30
30
30
30
30
30
30
30
30
30
30
30
30
30
30
30
30
30
30
30
30
30
30
30
30
30
30
30
30
30
30
30
30
30
30
30
30
30
30
30
0
0
0
0
0
0
0
0
5
12
17
23
27
30
30
30
30
30
30
30
30
30
30
30
30
29
27
21
16
10
3
0
0
0
0
0
0
0
0
30
30
30
30
30
30
30
30
30
30
30
30
30
30
30
30
30
30
30
30
30
30
30
30
30
30
30
30
0
0
0
0
0
30
30
30
30
30
30
30
0
0
0
0
0
0
3
12
21
29
30
30
30
30
30
30
30
30
30
30
30
30
30
30
30
30
30
30
30
30
30
30
30
27
19
9
0
0
0
0
0
0
0
30
30
30
30
30
30
30
0
0
0
0
0
30
30
30
30
30
30
30
30
30
30
30
0
0
0
0
0
0
0
0
0
0
30
30
30
0
0
0
0
0
2
12
23
30
30
30
30
30
30
30
30
30
30
30
30
30
30
30
30
30
30
30
30
30
30
30
30
30
30
30
30
30
30
29
21
8
0
0
0
0
0
0
30
30
30
0
0
0
0
0
0
0
0
0
0
30
30
30
30
30
30
30
0
0
0
0
0
0
0
0
0
0
0
0
0
0
0
0
0
4
18
29
30
30
30
30
30
30
30
30
30
30
30
30
30
30
30
30
30
30
30
30
30
30
30
30
30
30
30
30
30
30
30
30
30
30
30
27
12
2
0
0
0
0
0
0
0
0
0
0
0
0
0
0
0
0
0
30
30
30
30
30
0
0
0
0
8
19
25
25
21
11
0
0
0
0
0
0
4
19
30
30
30
30
30
30
30
30
30
30
30
30
30
30
30
30
30
30
30
30
30
30
30
30
30
30
30
30
30
30
30
30
30
30
30
30
30
30
30
30
27
15
0
0
0
0
0
0
2
12
23
27
25
19
8
0
0
0
0
30
30
30
0
0
0
0
19
30
30
30
30
30
30
9
0
0
0
0
15
29
30
30
30
30
30
30
30
30
30
30
30
30
30
30
30
30
30
30
30
30
30
30
30
30
30
30
30
30
30
30
30
30
30
30
30
30
30
30
30
30
30
30
30
27
9
0
0
0
0
16
30
30
30
30
30
30
19
0
0
0
0
30
30
0
0
0
21
30
30
30
30
30
29
8
0
0
0
7
25
30
30
30
30
30
30
30
30
30
30
30
30
30
30
30
30
30
30
30
30
30
30
30
30
30
30
30
30
30
30
30
30
30
30
30
30
30
30
30
30
30
30
30
30
30
30
30
21
2
0
0
0
17
30
30
30
30
30
30
19
0
0
0
30
0
0
0
9
30
30
30
30
30
29
5
0
0
0
11
29
30
30
30
30
30
30
30
30
30
30
30
30
30
30
30
30
30
30
30
30
30
30
30
30
30
30
30
30
30
30
30
30
30
30
30
30
30
30
30
30
30
30
30
30
30
30
30
30
30
27
5
0
0
0
15
30
30
30
30
30
30
9
0
0
0
0
0
0
21
30
30
30
30
30
8
0
0
0
17
30
30
30
30
30
30
30
30
30
30
30
30
30
30
30
30
30
30
30
30
30
30
30
30
30
30
30
30
30
30
30
30
30
30
30
30
30
30
30
30
30
30
30
30
30
30
30
30
30
30
30
30
29
9
0
0
0
17
30
30
30
30
30
21
0
0
0
0
0
0
27
30
30
30
30
11
0
0
0
19
30
30
30
30
30
30
30
30
30
30
30
30
30
30
30
30
30
30
30
30
30
30
30
30
30
30
30
30
30
30
30
30
30
30
30
30
30
30
30
30
30
30
30
30
30
30
30
30
30
30
30
30
30
30
30
10
0
0
0
21
30
30
30
30
27
0
0
0
0
0
0
29
30
30
30
19
0
0
0
17
30
30
30
30
30
30
30
30
30
30
30
30
30
30
30
27
26
27
30
30
30
30
30
30
30
30
30
30
30
30
30
30
30
30
30
30
30
30
30
27
26
27
30
30
30
30
30
30
30
30
30
30
30
30
30
30
29
7
0
0
2
27
30
30
30
29
0
0
0
0
0
0
25
30
30
27
2
0
0
12
30
30
30
30
30
30
30
30
30
30
30
30
30
30
22
13
12
12
12
16
26
30
30
30
30
30
30
30
30
30
30
30
30
30
30
30
30
30
26
16
12
12
12
12
21
30
30
30
30
30
30
30
30
30
30
30
30
30
27
5
0
0
9
30
30
30
25
0
0
0
0
0
0
16
30
30
11
0
0
5
30
30
30
30
30
30
30
30
30
30
30
30
30
30
18
12
12
12
12
12
12
12
24
30
30
30
30
30
30
30
30
30
30
30
30
30
30
30
24
12
12
12
12
12
12
12
18
30
30
30
30
30
30
30
30
30
30
30
30
30
23
0
0
0
21
30
30
16
0
0
0
30
0
0
2
27
27
0
0
0
25
30
30
30
30
30
30
30
30
30
30
30
30
30
21
12
12
12
12
12
12
12
12
12
27
30
30
30
30
30
30
30
30
30
30
30
30
30
27
12
12
12
12
12
12
12
12
12
21
30
30
30
30
30
30
30
30
30
30
30
30
30
11
0
0
7
30
27
2
0
0
30
30
0
0
0
8
11
0
0
10
30
30
30
30
30
30
30
30
30
30
30
30
30
30
12
12
12
12
12
12
12
12
12
12
21
30
30
30
30
30
30
30
30
30
30
30
30
30
21
12
12
12
12
12
12
12
12
12
12
30
30
30
30
30
30
30
30
30
30
30
30
30
27
2
0
0
23
8
0
0
0
30
30
30
0
0
0
0
0
0
23
30
30
30
30
30
30
30
30
30
30
30
30
30
26
12
12
12
12
12
12
12
12
12
12
16
30
30
30
30
30
30
30
30
30
30
30
30
30
16
12
12
12
12
12
12
12
12
12
12
26
30
30
30
30
30
30
30
30
30
30
30
30
30
12
0
0
0
0
0
0
30
30
30
30
0
0
0
0
0
4
30
30
30
30
30
30
30
30
30
30
30
30
30
30
24
12
12
12
12
12
12
12
12
12
12
13
30
30
30
30
30
30
30
30
30
30
30
30
30
13
12
12
12
12
12
12
12
12
12
12
24
30
30
30
30
30
30
30
30
30
30
30
30
30
25
0
0
0
0
0
0
30
30
30
30
30
30
0
0
0
12
30
30
30
30
30
30
30
30
30
30
30
30
30
30
26
12
12
12
12
12
12
12
12
12
12
16
30
30
30
30
30
30
30
30
30
30
30
30
30
16
12
12
12
12
12
12
12
12
12
12
27
30
30
30
30
30
30
30
30
30
30
30
30
30
30
3
0
0
0
30
30
30
30
30
30
30
30
0
0
0
19
30
30
30
30
30
30
30
30
30
30
30
30
30
30
30
13
12
12
12
12
12
12
12
12
12
22
30
30
30
30
30
30
30
30
30
30
30
30
30
22
12
12
12
12
12
12
12
12
12
13
30
30
30
30
30
30
30
30
30
30
30
30
30
30
30
8
0
0
30
30
30
30
30
30
30
30
30
0
0
0
23
30
30
30
30
30
30
30
30
30
30
30
30
30
30
30
24
12
12
12
12
12
12
12
12
13
29
30
30
30
30
30
30
30
30
30
30
30
30
30
29
13
12
12
12
12
12
12
12
12
24
30
30
30
30
30
30
30
30
30
30
30
30
30
30
30
11
0
0
30
30
30
30
30
30
30
30
30
0
0
0
25
30
30
30
30
30
30
30
30
30
30
30
30
30
30
30
30
22
12
12
12
12
12
12
13
27
30
30
30
30
30
30
30
30
30
30
30
30
30
30
30
27
13
12
12
12
12
12
12
21
30
30
30
30
30
30
30
30
30
30
30
30
30
30
30
30
15
0
0
0
30
30
30
30
30
30
30
30
0
0
0
25
30
30
30
30
30
30
30
30
30
30
30
30
30
30
30
30
30
26
18
13
12
16
21
29
30
30
30
30
30
30
30
30
30
30
30
30
30
30
30
30
30
29
22
16
12
13
18
26
30
30
30
30
30
30
30
30
30
30
30
30
30
30
30
30
30
12
0
0
30
30
30
30
30
30
30
30
30
0
0
0
21
30
30
30
30
30
30
30
30
30
30
30
30
30
30
30
30
30
30
30
30
30
30
30
30
30
30
30
30
30
30
30
30
30
30
30
30
30
30
30
30
30
30
30
30
30
30
30
30
30
30
30
30
30
30
30
30
30
30
30
30
30
30
30
30
30
11
0
0
30
30
30
30
30
30
30
30
30
0
0
0
17
30
30
30
30
30
30
30
30
30
30
30
30
30
30
30
30
30
30
30
30
30
30
30
30
30
30
30
30
30
30
30
30
30
30
30
30
30
30
30
30
30
30
30
30
30
30
30
30
30
30
30
30
30
30
30
30
30
30
30
30
30
30
30
30
30
5
0
0
30
30
30
30
30
30
30
30
30
30
0
0
9
30
30
30
30
30
30
30
30
30
30
30
30
30
30
30
30
30
30
30
30
30
30
30
30
30
30
30
30
30
30
30
30
30
30
30
30
30
30
30
30
30
30
30
30
30
30
30
30
30
30
30
30
30
30
30
30
30
30
30
30
30
30
30
30
29
0
0
0
30
30
30
30
30
30
30
30
30
30
0
0
2
29
30
30
30
30
30
30
30
30
30
30
30
30
30
30
30
30
30
30
30
30
30
30
30
30
30
30
30
30
30
30
30
30
30
30
30
30
30
30
30
30
30
30
30
30
30
30
30
30
30
30
30
30
30
30
30
30
30
30
30
30
30
30
30
19
0
0
0
30
30
30
30
30
30
30
30
30
30
0
0
0
18
30
30
30
30
30
30
30
30
30
30
30
30
30
30
30
30
30
30
30
30
30
30
30
30
30
30
30
30
30
30
30
30
30
30
30
30
30
30
30
30
30
30
30
30
30
30
30
30
30
30
30
30
30
30
30
30
30
30
30
30
30
30
30
7
0
0
30
30
30
30
30
30
30
30
30
30
30
30
0
0
4
29
30
30
30
30
30
30
30
30
30
30
30
30
30
30
30
30
30
30
30
30
30
30
30
30
30
30
30
30
30
30
30
30
30
30
30
30
30
30
30
30
30
30
30
30
30
30
30
30
30
30
30
30
30
30
30
30
30
30
30
30
30
23
0
0
0
30
30
30
30
30
30
30
30
30
30
30
30
0
0
0
16
30
30
30
30
30
30
30
30
30
30
30
30
30
30
30
30
30
30
30
30
30
30
30
30
30
30
30
30
30
30
30
30
30
30
30
30
30
30
30
30
30
30
30
30
30
30
30
30
30
30
30
30
30
30
30
30
30
30
30
30
30
5
0
0
0
30
30
30
30
30
30
30
30
30
30
30
30
30
0
0
2
25
30
30
30
30
30
30
30
30
30
30
30
30
30
30
30
30
29
23
29
30
30
30
30
30
30
30
30
30
30
30
30
30
30
30
30
30
30
30
30
30
29
23
29
30
30
30
30
30
30
30
30
30
30
30
30
30
30
30
30
16
0
0
0
30
30
30
30
30
30
30
30
30
30
30
30
30
30
0
0
0
5
29
30
30
30
30
30
30
30
30
30
30
30
30
30
30
30
8
0
5
27
30
30
30
30
30
30
30
30
30
30
30
30
30
30
30
30
30
30
30
27
5
0
8
30
30
30
30
30
30
30
30
30
30
30
30
30
30
30
23
0
0
0
30
30
30
30
30
30
30
30
30
30
30
30
30
30
30
30
0
0
0
8
29
30
30
30
30
30
30
30
30
30
30
30
30
30
30
2
0
0
2
17
29
30
30
30
30
30
30
30
30
30
30
30
30
30
30
30
29
17
2
0
0
2
30
30
30
30
30
30
30
30
30
30
30
30
30
30
25
2
0
0
0
30
30
30
30
30
30
30
30
30
30
30
30
30
30
30
30
30
0
0
0
9
29
30
30
30
30
30
30
30
30
30
30
30
30
30
21
0
0
0
0
2
12
21
27
30
30
30
30
30
30
30
30
30
27
21
11
2
0
0
0
0
21
30
30
30
30
30
30
30
30
30
30
30
30
30
25
3
0
0
0
30
30
30
30
30
30
30
30
30
30
30
30
30
30
30
30
30
30
30
0
0
0
7
27
30
30
30
30
30
30
30
30
30
30
30
30
30
23
4
0
0
0
0
0
0
2
5
7
8
10
8
7
5
2
0
0
0
0
0
0
4
23
30
30
30
30
30
30
30
30
30
30
30
30
30
23
2
0
0
0
30
30
30
30
30
30
30
30
30
30
30
30
30
30
30
30
30
30
30
30
30
0
0
0
4
23
30
30
30
30
30
30
30
30
30
30
30
30
30
29
17
3
0
0
0
0
0
0
0
0
0
0
0
0
0
0
0
0
0
3
17
29
30
30
30
30
30
30
30
30
30
30
30
30
30
17
0
0
0
0
30
30
30
30
30
30
30
30
30
30
30
30
30
30
30
30
30
30
30
30
30
30
30
0
0
0
0
15
30
30
30
30
30
30
30
30
30
30
30
30
30
30
30
23
12
5
0
0
0
0
0
0
0
0
0
0
0
5
12
23
30
30
30
30
30
30
30
30
30
30
30
30
30
30
27
8
0
0
0
0
30
30
30
30
30
30
30
30
30
30
30
30
30
30
30
30
30
30
30
30
30
30
30
30
30
0
0
0
0
4
21
30
30
30
30
30
30
30
30
30
30
30
30
30
30
30
30
30
27
25
23
21
21
21
23
25
27
30
30
30
30
30
30
30
30
30
30
30
30
30
30
30
30
29
15
0
0
0
0
0
30
30
30
30
30
30
30
30
30
30
30
30
30
30
30
30
30
30
30
30
30
30
30
30
30
30
30
0
0
0
0
0
7
23
30
30
30
30
30
30
30
30
30
30
30
30
30
30
30
30
30
30
30
30
30
30
30
30
30
30
30
30
30
30
30
30
30
30
30
30
30
30
29
17
3
0
0
0
0
30
30
30
30
30
30
30
30
30
30
30
30
30
30
30
30
30
30
30
30
30
30
30
30
30
30
30
30
30
30
30
0
0
0
0
0
5
19
29
30
30
30
30
30
30
30
30
30
30
30
30
30
30
30
30
30
30
30
30
30
30
30
30
30
30
30
30
30
30
30
30
30
27
15
2
0
0
0
0
0
30
30
30
30
30
30
30
30
30
30
30
30
30
30
30
30
30
30
30
30
30
30
30
30
30
30
30
30
30
30
30
30
30
0
0
0
0
0
0
2
11
21
29
30
30
30
30
30
30
30
30
30
30
30
30
30
30
30
30
30
30
30
30
30
30
30
30
30
30
30
27
18
8
0
0
0
0
0
0
30
30
30
30
30
30
30
30
30
30
30
30
30
30
30
30
30
30
30
30
30
30
30
30
30
30
30
30
30
30
30
30
30
30
30
30
30
0
0
0
0
0
0
0
2
9
17
23
30
30
30
30
30
30
30
30
30
30
30
30
30
30
30
30
30
30
30
30
27
21
15
7
0
0
0
0
0
0
0
30
30
30
30
30
30
30
30
30
30
30
30
30
30
30
30
30
30
30
30
30
30
30
30
30
30
30
30
30
30
30
30
30
30
30
30
30
30
30
30
30
30
0
0
0
0
0
0
0
0
0
5
10
15
19
21
25
27
27
29
29
29
27
27
23
21
18
15
9
4
0
0
0
0
0
0
0
0
0
30
30
30
30
30
30
30
30
30
30
30
30
30
30
30
30
30
30
30
30
30
30
30
30
30
30
30
30
30
30
30
30
30
30
30
30
30
30
30
30
30
30
30
30
30
30
0
0
0
0
0
0
0
0
0
0
0
0
0
0
0
0
0
0
0
0
0
0
0
0
0
0
0
0
0
0
0
0
30
30
30
30
30
30
30
30
30
30
30
30
30
30
30
30
30
30
30
30
30
30
30
30
30
30
30
30
30
30
30
30
30
30
30
30
30
30
30
30
30
30
30
30
30
30
30
30
30
30
30
30
30
0
0
0
0
0
0
0
0
0
0
0
0
0
0
0
0
0
0
0
0
0
0
0
0
0
30
30
30
30
30
30
30
30
30
30
30
30
30
30
30
30
30
30
30
30
30
30
30
30
30
30
30
30
30
30
30
30
30
30
30
30
30
30
30
30
30
30
30
30
30
30
30
30
30
30
30
30
30
30
30
30
30
30
30
30
30
0
0
0
0
0
0
0
0
0
0
0
0
0
0
0
30
30
30
30
30
30
30
30
30
30
30
30
30
30
30
30
30
30
30
30
30
30
30
30
30
30
30
30
30
30
30
30
30
30
30
30
30
30
30
30
30
30
30
30
30
30
30
30
30
30
30
30
30
30
30
30
30
30
30
30
30
30
30
30
30
30
30
30
30
30
30
30
30
30
30
30
30
30
30
30
30
30
30
30
30
30
30
30
30
30
30
30
30
30
30
30
30
30
30
30
30
30
30
30
30
30
30
30
30
30
30
30
30
30
30
30
30
30
30
30
30
30
30
30
30
30
30
30
30
30
30
30
30
30
30
30
30
30
30
30
30
30
30
30
30
30
30
30
30
30
30
30
30
30
30
30
30
30
30
30
30
30
30
30
30
30
30
30
30
30
30
30
30
30
30
30
30
30
30
30
30
30
30
30
30
30
30
30
30
30
30
30
30
30
30
30
30
30
30
30
30
30
30
30
30
30
30
30
30
30
30
30
30
30
30
30
30
30
30
30
30
30
30
30
30
30
30
30
30
30
30
30
30
30
30
30
30
30
30
30
30
30
30
30
30
30
30
30
30
30
30
30
30
30
30
30
30
30
30
30
30
30
30
30
30
30
30
30
30
30
30
30
30
30
30
30
30
30
30
30
30
30
30
30
30
30
30
30
30
30
30
30
30
30
30
30
30
30
30
30
30
30
30
30
30
30
30
30
30
30
30
30
30
30
30
30
30
30
30
30
30
30
30
30
30
30
30
30
30
30
30
30
30
30
30
30
30
30
30
30
30
30
30
30
30
30
30
30
30
30
30
30
30
30
30
30
30
30
30
30
30
30
30
30
30
30
30
30
30
30
30
30
30
30
30
30
30
30
30
30
30
30
30
30
30
30
30
30
30
30
30
30
30
30
30
30
30
30
30
30
30
30
30
30
30
30
30
30
30
30
30
30
30
30
30
30
30
30
30
30
30
30
30
30
30
30
30
30
30
30
30
30
30
30
30
30
30
30
30
30
30
30
30
30
30
30
30
30
30
30
30
30
30
30
30
30
30
30
30
30
30
30
30
30
30
30
30
30
30
30
30
30
30
30
30
30
30
30
30
30
30
30
30
30
30
30
30
30
30
30
30
30
30
30
30
30
30
30
30
30
30
30
30
30
30
30
30
30
30
30
30
30
30
30
30
30
30
30
30
30
30
30
30
30
30
30
30
30
30
30
30
30
30
30
30
30
30
30
30
30
30
30
30
30
30
30
30
30
30
30
30
30
30
30
30
30
30
30
30
30
30
30
30
30
30
30
30
30
30
30
30
30
30
30
30
30
30
30
30
30
30
30
30
30
30
30
30
30
30
30
30
30
30
30
30
30
30
30
30
30
